<svg id="wh-oval-89" version="1.1" xmlns="http://www.w3.org/2000/svg" x="0" y="0" viewBox="0 0 343 243" xml:space="preserve"><style>#wh-oval-89 .st2{opacity:.5;fill:#fff}#wh-oval-89 .st3{fill:#fff}</style><ellipse class="st0" cx="171.5" cy="121.5" rx="168.6" ry="118.7" fill="#0a2458"/><path class="st1" d="M171.5 229.5c87.3 0 158-48.4 158-108s-70.7-108-158-108-158 48.4-158 108 70.7 108 158 108zM290.8 209c-31.1 21.3-73.3 34-119.3 34s-88.2-12.7-119.3-34C21.1 187.8 0 157.1 0 121.5S21.1 55.2 52.2 34C83.3 12.7 125.5 0 171.5 0s88.2 12.7 119.3 34c31 21.2 52.2 51.9 52.2 87.5s-21.2 66.3-52.2 87.5z" fill-rule="evenodd" clip-rule="evenodd" fill="#fff"/><g><path class="st2" d="M168.3 134.4h2.7v8.5h-2.7zM168.3 143.9h2.7v8.5h-2.7zM172 143.9h2.7v8.5H172zM172 134.4h2.7v8.4H172z"/><path class="st2" d="M212.5 92.7h-81.9c-.6 0-1.1.5-1.1 1.1v66c0 .6.5 1.1 1.1 1.1h81.8c.7 0 1.2-.5 1.2-1.2v-66c0-.5-.5-1-1.1-1zm-20.7 26c0-.2.1-.2.2-.3.2-.2.4-.7.4-1.2V110c0-.4-.2-.8-.4-1.2-.1-.1-.2-.2-.2-.3v-1.4c0-.2.2-.3.3-.3h9.1c.2 0 .3.2.3.3v1.4c0 .2-.1.2-.2.3-.2.3-.4.7-.4 1.2v7.1c0 .4.2.8.4 1.2.1.1.2.2.2.3v3.2c0 .2-.2.3-.3.3h-9.1c-.2 0-.3-.2-.3-.3v-3.1zm-25.2 0c0-.2.1-.2.2-.3.2-.2.4-.7.4-1.2v-7.1c0-.4-.2-.8-.4-1.2-.1-.1-.2-.2-.2-.3v-1.4c0-.2.2-.3.3-.3h9.1c.2 0 .3.2.3.3v1.4c0 .2-.1.2-.2.3-.2.2-.4.7-.4 1.2v7.2c0 .4.2.8.4 1.2.1.1.2.2.2.3v3.2c0 .2-.2.3-.3.3h-9.1c-.2 0-.3-.2-.3-.3v-3.3zm-25.1 0c0-.2.1-.2.2-.3.2-.2.4-.7.4-1.2v-7.1c0-.4-.2-.8-.4-1.2-.1-.1-.2-.2-.2-.3v-1.4c0-.2.2-.3.3-.3h9.1c.2 0 .3.2.3.3v1.4c0 .2-.1.2-.2.3-.2.2-.4.7-.4 1.2v7.2c0 .4.2.8.4 1.2.1.1.2.2.2.3v3.2c0 .2-.2.3-.3.3h-9.1c-.2 0-.3-.2-.3-.3v-3.3zm9.8 13.2c0 .2-.1.2-.2.3-.2.2-.4.7-.4 1.2v8.7c0 .4.2.8.4 1.2.1.1.2.2.2.3v3.2c0 .2-.2.3-.3.3h-9.1c-.2 0-.3-.2-.3-.3v-3.2c0-.2.1-.2.2-.3.2-.2.4-.7.4-1.2v-8.7c0-.4-.2-.8-.4-1.2-.1-.1-.2-.2-.2-.3v-1.4c0-.2.2-.3.3-.3h9.1c.2 0 .3.2.3.3v1.4zm.5-4c-.1.2-.2.2-.2.2h-10c-.2 0-.3-.1-.4-.2-.1-.2-.1-.4.1-.5 1.5-1.2 3.3-1.9 5.2-1.9 1.9 0 3.7.7 5.2 1.9.1.1.2.3.1.5zm24.5 26.2h-9.6c-.2 0-.5-.2-.5-.5v-20.7c.1-6.9 10.4-6.9 10.5 0 0 6.9 0 13.7.1 20.7 0 .3-.3.5-.5.5zm25.2-22.2c0 .2-.1.2-.2.3-.2.2-.4.7-.4 1.2v8.7c0 .4.2.8.4 1.2.1.1.2.2.2.3v3.2c0 .2-.2.3-.3.3h-9.1c-.2 0-.3-.2-.3-.3v-3.2c0-.2.1-.2.2-.3.2-.2.4-.7.4-1.2v-8.7c0-.4-.2-.8-.4-1.2-.1-.1-.2-.2-.2-.3v-1.4c0-.2.2-.3.3-.3h9.1c.2 0 .3.2.3.3v1.4zm.5-4c-.1.2-.2.2-.2.2h-10c-.2 0-.3-.1-.4-.2-.1-.2-.1-.4.1-.5 1.5-1.2 3.3-1.9 5.2-1.9 1.9 0 3.7.7 5.2 1.9.1.1.2.3.1.5z"/><path class="st3" d="m192.6 72.3 2.4 1h20.3l.8-1.1c.2-.2 0-.4-.2-.4h-23.2c-.3 0-.4.5-.1.5zM222.2 79.1v3.1c0 .2.2.4.3.4h7.2c.2 0 .3-.2.4-.4v-3.1l1.2-1.7c.2-.2 0-.6-.2-.6h-10c-.3 0-.5.3-.2.6l1.3 1.7zM215.1 166.4H127.9c-.2 0-.5.2-.5.5v3.7c0 .2.2.5.5.5h87.3c.2 0 .5-.2.5-.5v-3.7c-.1-.3-.3-.5-.6-.5zM197.3 74.3l17.5 6.8c.2.1.4-.1.4-.2v-2.1c0-.1 0-.1-.1-.2l-.3-.5c0-.1-.1-.1-.1-.2v-3.7l-17.4.1zM127.7 73.3H148l2.4-1c.2-.1.2-.5-.1-.5h-23.2c-.2 0-.3.2-.2.4l.8 1.1zM112.8 79.1v3.1c0 .2.2.4.4.4h7.2c.2 0 .3-.2.3-.4v-3.1l1.2-1.7c.2-.2 0-.6-.2-.6h-10c-.3 0-.5.3-.2.6l1.3 1.7zM293.8 153.5h-79.4c-.2-.7-.5-1.3-.7-2h-7.8c-.2 0-.4.2-.5.4-.2.6-.4 1.2-.7 1.8-.2.6-.6 1.2-1 1.7v3.2h-14.1v-3.2c-.7-1.2-1.2-2.3-1.6-3.6-.1-.2-.2-.4-.5-.4H180c-.2 0-.4.2-.5.4-.3 1.2-.8 2.4-1.6 3.6v3.2h-12.7v-3.2c-.7-1.1-1.2-2.3-1.6-3.6-.1-.2-.2-.4-.5-.4h-7.5c-.2 0-.4.2-.5.4-.3 1.2-.9 2.4-1.6 3.6v3.2h-14.1v-3.2c-.3-.6-.7-1.2-1-1.7-.2-.6-.5-1.2-.7-1.8-.1-.2-.2-.4-.5-.4h-7.8c-.2.7-.4 1.3-.7 2H49.2c-.4 0-.7.3-.7.7v6.8c0 .4.3.7.7.7h78.2v2.6c0 .4.3.7.7.7H215c.4 0 .7-.3.7-.7v-2.6h78.2c.4 0 .7-.3.7-.7v-6.8c-.1-.3-.4-.7-.8-.7zM128.2 78.3l-.3.5c0 .1-.1.1-.1.2v2.1c0 .2.2.3.4.2l17.5-6.8h-17.4l-.1 3.8c.1-.1.1-.1 0 0zM187.5 107.8V100c.2-1.2.5-2.3 1-3.5H179c.5 1.1.8 2.2 1 3.5v49.4c0 .4.3.7.7.7h6.2c.4 0 .7-.3.7-.7V109c-.1-.4-.1-.8-.1-1.2zM163.1 105.6c.2-6.7.5-7.8 1-9h-9.6c.5 1.1.8 2.2 1 3.5v49.4c0 .4.3.7.7.7h6.2c.4 0 .7-.3.7-.7V105.6z"/><path class="st3" d="M56.4 87.7c0-.3.3-.7.7-.7h11.6c.4 0 .7.2.7.7v2.9c0 .3-.3.7-.7.7H57.1c-.4 0-.7-.2-.7-.7v-2.9zm18.8 0c0-.3.3-.7.7-.7h11.6c.4 0 .7.2.7.7v2.9c0 .3-.3.7-.7.7H75.8c-.4 0-.7-.2-.7-.7l.1-2.9zm18.7 0c0-.3.3-.7.7-.7h11.6c.4 0 .7.2.7.7v2.9c0 .3-.3.7-.7.7H94.6c-.4 0-.7-.2-.7-.7v-2.9zm18.7 0c0-.3.3-.7.7-.7h13.5c.4 0 .7.2.7.7v1.9h87.8v-1.8c0-.3.3-.7.7-.7h13.5c.4 0 .7.2.7.7v2.9c0 .3-.3.7-.7.7H113.3c-.4 0-.7-.2-.7-.7v-3zm22.4-4L171.5 69 208 83.7h-6.1l-15.2-6.1-15.2-6.1-15.2 6.1-15.3 6.1h-6zm101.1 4c0-.3.3-.7.7-.7h11.6c.4 0 .7.2.7.7v2.9c0 .3-.3.7-.7.7h-11.6c-.4 0-.7-.2-.7-.7v-2.9zm18.7 0c0-.3.3-.7.7-.7h11.6c.4 0 .7.2.7.7v2.9c0 .3-.3.7-.7.7h-11.6c-.4 0-.7-.2-.7-.7v-2.9zm18.8 0c0-.3.3-.7.7-.7h11.6c.4 0 .7.2.7.7v2.9c0 .3-.3.7-.7.7h-11.6c-.4 0-.7-.2-.7-.7v-2.9zm-55.1 39.9 5.2-2.2h.4l5.2 2.2c.2.1.2.2.2.4s-.2.2-.3.2h-10.5c-.2 0-.3-.1-.3-.2-.2-.2-.1-.4.1-.4zm.5-8.9c0-.1.1-.2.2-.3.2-.3.4-.7.4-1.2V110c0-.5-.2-.9-.4-1.2-.1-.1-.2-.2-.2-.3v-1.4c0-.2.2-.3.3-.3h9.1c.2 0 .3.2.3.3v1.4c0 .1-.1.2-.2.3-.2.3-.4.7-.4 1.2v7.1c0 .5.2.9.4 1.2.1.1.2.2.2.3v3.2c0 .2-.2.3-.3.3h-9.1c-.2 0-.3-.2-.3-.3v-3.1zm18.3 8.7c.2-.2.3-.2.5-.4 1.4-1 3-1.5 4.7-1.5 1.9 0 3.7.7 5.2 1.9l.1.1c.1.1.1.2.1.3s-.1.2-.2.2h-10.3c-.1 0-.2-.1-.2-.1-.1-.1-.1-.1-.1-.2.1 0 .1-.2.2-.3zm.4-8.7c0-.1.1-.2.2-.3.2-.3.4-.7.4-1.2V110c0-.5-.2-.9-.4-1.2-.1-.1-.2-.2-.2-.3v-1.4c0-.2.2-.3.3-.3h9.1c.2 0 .3.2.3.3v1.4c0 .1-.1.2-.2.3-.2.3-.4.7-.4 1.2v7.1c0 .5.2.9.4 1.2.1.1.2.2.2.3v3.2c0 .2-.2.3-.3.3H238c-.2 0-.3-.2-.3-.3v-3.1zm18.2 8.9 5.3-2.2h.4l5.2 2.2c.1 0 .1.1.2.1.1.1.1.2.1.2 0 .1-.1.2-.2.2s-.1.1-.2.1h-10.5c-.1 0-.2 0-.2-.1-.1 0-.1-.1-.2-.2v.1c-.1-.1-.1-.3.1-.4zm.6-8.9c0-.1.1-.2.2-.3.2-.3.4-.7.4-1.2V110c0-.5-.2-.9-.4-1.2-.1-.1-.2-.2-.2-.3v-1.4c0-.2.2-.3.3-.3h9.1c.2 0 .3.2.3.3v1.4c0 .1-.1.2-.2.3-.2.3-.4.7-.4 1.2v7.1c0 .5.2.9.4 1.2.1.1.2.2.2.3v3.2c0 .2-.2.3-.3.3h-9.1c-.2 0-.3-.2-.3-.3v-3.1zm18.3 8.7c.2-.2.3-.2.5-.4 1.4-1 3-1.5 4.7-1.5 1.9 0 3.7.7 5.2 1.9l.1.1c.1.1.1.2.1.3s-.1.2-.2.2H275c-.1 0-.2-.1-.2-.1-.1-.1-.1-.1-.1-.2-.1 0 0-.2.1-.3zm.4-8.7c0-.1.1-.2.2-.3.2-.3.4-.7.4-1.2V110c0-.5-.2-.9-.4-1.2-.1-.1-.2-.2-.2-.3v-1.4c0-.2.2-.3.3-.3h9.1c.2 0 .3.2.3.3v1.4c0 .1-.1.2-.2.3-.2.3-.4.7-.4 1.2v7.1c0 .5.2.9.4 1.2.1.1.2.2.2.3v3.2c0 .2-.2.3-.3.3h-9.1c-.2 0-.3-.2-.3-.3v-3.1zm9.7 13.2c0 .1-.1.2-.2.3-.2.3-.4.7-.4 1.2v8.7c0 .5.2.9.4 1.2.1.1.2.2.2.3v3.2c0 .2-.2.3-.3.3h-9.1c-.2 0-.3-.2-.3-.3v-3.2c0-.1.1-.2.2-.3.2-.3.4-.7.4-1.2v-8.7c0-.5-.2-.9-.4-1.2-.1-.1-.2-.2-.2-.3v-1.4c0-.2.2-.3.3-.3h9.1c.2 0 .3.2.3.3v1.4zm-18.7 0c0 .1-.1.2-.2.3-.2.3-.4.7-.4 1.2v8.7c0 .5.2.9.4 1.2.1.1.2.2.2.3v3.2c0 .2-.2.3-.3.3h-9.1c-.2 0-.3-.2-.3-.3v-3.2c0-.1.1-.2.2-.3.2-.3.4-.7.4-1.2v-8.7c0-.5-.2-.9-.4-1.2-.1-.1-.2-.2-.2-.3v-1.4c0-.2.2-.3.3-.3h9.1c.2 0 .3.2.3.3v1.4zm-18.8 0c0 .1-.1.2-.2.3-.2.3-.4.7-.4 1.2v8.7c0 .5.2.9.4 1.2.1.1.2.2.2.3v3.2c0 .2-.2.3-.3.3H238c-.2 0-.3-.2-.3-.3v-3.2c0-.1.1-.2.2-.3.2-.3.4-.7.4-1.2v-8.7c0-.5-.2-.9-.4-1.2-.1-.1-.2-.2-.2-.3v-1.4c0-.2.2-.3.3-.3h9.1c.2 0 .3.2.3.3v1.4zm-18.7 0c0 .1-.1.2-.2.3-.2.3-.4.7-.4 1.2v8.7c0 .5.2.9.4 1.2.1.1.2.2.2.3v3.2c0 .2-.2.3-.3.3h-9.1c-.2 0-.3-.2-.3-.3v-3.2c0-.1.1-.2.2-.3.2-.3.4-.7.4-1.2v-8.7c0-.5-.2-.9-.4-1.2-.1-.1-.2-.2-.2-.3v-1.4c0-.2.2-.3.3-.3h9.1c.2 0 .3.2.3.3v1.4zm-104.3-3.6h-10.5c-.2 0-.3-.1-.3-.2 0-.2.1-.3.2-.4l5.2-2.2h.4l5.2 2.2c.2.1.2.2.2.4-.1.1-.2.2-.4.2zm-.4 3.6c0 .1-.1.2-.2.3-.2.3-.4.7-.4 1.2v8.7c0 .5.2.9.4 1.2.1.1.2.2.2.3v3.2c0 .2-.2.3-.3.3h-9.1c-.2 0-.3-.2-.3-.3v-3.2c0-.1.1-.2.2-.3.2-.3.4-.7.4-1.2v-8.7c0-.5-.2-.9-.4-1.2-.1-.1-.2-.2-.2-.3v-1.4c0-.2.2-.3.3-.3h9.1c.2 0 .3.2.3.3v1.4zm-18.2-4c0 .1-.1.1-.1.2l-.1.1c-.1 0-.1.1-.2.1h-10c-.1 0-.1 0-.2-.1-.2-.1-.2-.2-.2-.2v-.3s0-.1.1-.1c0 0 0-.1.1-.1.3-.3.7-.6 1.2-.8 0 0 .1 0 .1-.1 1.2-.7 2.6-1.1 4-1.1 1.9 0 3.7.7 5.2 1.9.1.1.2.3.1.5zm-.5 4c0 .1-.1.2-.2.3-.2.3-.4.7-.4 1.2v8.7c0 .5.2.9.4 1.2.1.1.2.2.2.3v3.2c0 .2-.2.3-.3.3h-9.1c-.2 0-.3-.2-.3-.3v-3.2c0-.1.1-.2.2-.3.2-.3.4-.7.4-1.2v-8.7c0-.5-.2-.9-.4-1.2-.1-.1-.2-.2-.2-.3v-1.4c0-.2.2-.3.3-.3h9.1c.2 0 .3.2.3.3v1.4zm-18.2-3.7c-.1 0-.1.1-.2.1H76.2c-.1 0-.2-.1-.2-.2v-.1c0-.2.1-.3.2-.4l5.2-2.2h.4l5.2 2.2c.2.1.2.2.2.4 0 .1 0 .2-.1.2zm-.5 3.7c0 .1-.1.2-.2.3-.2.3-.4.7-.4 1.2v8.7c0 .5.2.9.4 1.2.1.1.2.2.2.3v3.2c0 .2-.2.3-.3.3h-9.1c-.2 0-.3-.2-.3-.3v-3.2c0-.1.1-.2.2-.3.2-.3.4-.7.4-1.2v-8.7c0-.5-.2-.9-.4-1.2-.1-.1-.2-.2-.2-.3v-1.4c0-.2.2-.3.3-.3h9.1c.2 0 .3.2.3.3v1.4zm-18.2-4c0 .1-.1.2-.2.2s-.1.1-.2.1H57.8l-.2-.2c-.1-.2 0-.3.1-.4l.1-.1c.2-.1.2-.2.4-.3.1-.1.2-.1.2-.2.2-.1.2-.2.4-.2.1-.1.2-.2.4-.2 1.2-.6 2.4-.9 3.7-.9 1.9 0 3.7.7 5.2 1.9.3-.1.3.1.3.3zm-.6 4c0 .1-.1.2-.2.3-.2.3-.4.7-.4 1.2v8.7c0 .5.2.9.4 1.2.1.1.2.2.2.3v3.2c0 .2-.2.3-.3.3h-9.1c-.2 0-.3-.2-.3-.3v-3.2c0-.1.1-.2.2-.3.2-.3.4-.7.4-1.2v-8.7c0-.5-.2-.9-.4-1.2-.1-.1-.2-.2-.2-.3v-1.4c0-.2.2-.3.3-.3h9.1c.2 0 .3.2.3.3v1.4zm-9.7-13.2c0-.1.1-.2.2-.3.2-.3.4-.7.4-1.2v-7.1c0-.5-.2-.9-.4-1.2-.1-.1-.2-.2-.2-.3v-1.5c0-.2.2-.3.3-.3h9.1c.2 0 .3.2.3.3v1.4c0 .1-.1.2-.2.3-.2.3-.4.7-.4 1.2v7.2c0 .5.2.9.4 1.2.1.1.2.2.2.3v3.2c0 .2-.2.3-.3.3h-9.1c-.2 0-.3-.2-.3-.3v-3.2zm18.7 0c0-.1.1-.2.2-.3.2-.3.4-.7.4-1.2v-7.1c0-.5-.2-.9-.4-1.2-.1-.1-.2-.2-.2-.3v-1.5c0-.2.2-.3.3-.3h9.1c.2 0 .3.2.3.3v1.4c0 .1-.1.2-.2.3-.2.3-.4.7-.4 1.2v7.2c0 .5.2.9.4 1.2.1.1.2.2.2.3v3.2c0 .2-.2.3-.3.3h-9.1c-.2 0-.3-.2-.3-.3v-3.2zm18.8 0c0-.1.1-.2.2-.3.2-.3.4-.7.4-1.2v-7.1c0-.5-.2-.9-.4-1.2-.1-.1-.2-.2-.2-.3v-1.5c0-.2.2-.3.3-.3h9.1c.2 0 .3.2.3.3v1.4c0 .1-.1.2-.2.3-.2.3-.4.7-.4 1.2v7.2c0 .5.2.9.4 1.2.1.1.2.2.2.3v3.2c0 .2-.2.3-.3.3h-9.1c-.2 0-.3-.2-.3-.3v-3.2zm18.7 0c0-.1.1-.2.2-.3.2-.3.4-.7.4-1.2v-7.1c0-.5-.2-.9-.4-1.2-.1-.1-.2-.2-.2-.3v-1.5c0-.2.2-.3.3-.3h9.1c.2 0 .3.2.3.3v1.4c0 .1-.1.2-.2.3-.2.3-.4.7-.4 1.2v7.2c0 .5.2.9.4 1.2.1.1.2.2.2.3v3.2c0 .2-.2.3-.3.3h-9.1c-.2 0-.3-.2-.3-.3v-3.2zM49.2 85.9h2.1s.1 0 .1.1v8.5c0 .2.2.3.4.3h76.1c.3.6.7 1.2.9 1.8H49.3c-.2 0-.5.2-.5.5v2.4c0 .3.2.5.5.5h80.3v2.2h-78c-.2 0-.2.1-.2.2v47.7h85.2c.4 0 .7-.3.7-.7v-.1c0-.4.1-48.9.1-48.9v-.4c.1-.9.3-1.8.6-2.7.3-.9.7-1.7 1.2-2.6H204c.5.8.9 1.7 1.2 2.6s.5 1.7.6 2.7v.4s.1 48.5.1 48.9v.1c0 .4.3.7.7.7l83.1-.1h1.8c.2 0 .2-.1.2-.2v-47.4c0-.2-.1-.2-.2-.2h-78.1V100h80.3c.3 0 .5-.2.5-.5v-2.4c0-.2-.2-.5-.5-.5h-79.5c.2-.6.6-1.2.9-1.8h76.2c.2 0 .4-.1.4-.3V86s0-.1.1-.1h2.1c.3 0 .5-.2.5-.5v-1.1c0-.3-.2-.5-.5-.5H218c-.3 0-.7-.1-1-.2l-44.7-18.1v-3.8c.9-.2 2.2-.5 3.2-.2 5.1 1.7 6.2 1.1 6.2 1-.9-1.2-.6-3.9-.6-3.9.3-2.4.2-2.9.2-3-.2.1-1.6.9-5-.2-1.8-.6-3.2-.7-4-.8 0-.5-.4-.8-.9-.8-.4.1-.7.4-.7.9v10.7L126 83.5c-.3.2-.7.2-1 .2H49.2c-.3 0-.5.2-.5.5v1.1c0 .4.2.6.5.6z"/><path class="st3" d="m198.6 96.5-27.1 30.4-27.1-30.4-.4.2 27.2 30.6v-.1h.5l.1.1 27.1-30.5v-.1z"/><path class="st3" d="M172.3 125.7h-1.7c-.4 0-.6.3-.6.6v4.8c0 .4.3.6.6.6h1.7c.4 0 .6-.3.6-.6v-4.8c0-.4-.2-.6-.6-.6z"/></g></svg>