<svg xmlns="http://www.w3.org/2000/svg" viewBox="0 0 1231 180" style="fill:#0a2458"><path d="M200.9 126h1.5l30-102.8-18.7-9V4.5h60.7v9.7l-21.7 10.5L200.9 177h-22.5l-39-113.3H138L94.5 177H72L23.2 21.8 0 14.3V4.5h86.2v9l-20.2 6 30 107.3h.7l33.7-90-6-15.8-18-7.5v-9h80.2v9l-20.2 6.8L200.9 126zM446.1 21l-22.5-6V4.5h88.5V15l-25.5 6v138.8l25.5 6v9.8h-88.5v-9.8l22.5-6V96h-72v63.8l22.5 6v9.8h-88.5v-9.8l25.5-6V21l-25.5-6V4.5h89.2V15l-22.5 6v57.8h72V21h-.7zm131.2 159c-9.7 0-17.2-7.5-17.2-17.2 0-9 7.5-17.2 17.2-17.2s17.2 7.5 17.2 17.2c0 8.9-7.5 17.2-17.2 17.2zM770.7 57.8c-16.5-31.5-32.2-45-56.2-45-27.7 0-51.7 24.8-51.7 74.2 0 51 24.7 77.2 60.7 77.2 13.5 0 22.5-3.8 32.2-9v-43.5l-25.5-6V96h74.2v9.8l-22.5 6v66l-8.2 1.5-13.5-13.5c-13.5 8.2-27 13.5-47.2 13.5-46.5 0-83.2-33-83.2-86.2C629.8 41.3 668 .9 719 .9c16.5 0 30 3.8 40.5 9l8.2-9.8h9l1.5 57-7.5.7zm161.2 121.5c-54 0-83.2-41.2-83.2-89.3 0-48 33-89.2 84.7-89.2 54 0 83.2 41.2 83.2 89.2 0 48.8-33.7 89.3-84.7 89.3zM929.7 12c-24.7 0-49.5 18-49.5 78s28.5 78 55.5 78c24.7 0 49.5-24.8 49.5-78s-28.5-78-55.5-78zm216.6 165h-13.5l-60.7-155.3-24.7-6.8V4.5h81v9.7l-26.2 6 45 121.5 45-119.3-20.2-7.5V4.5h59.2v9.7l-22.5 7.5-62.4 155.3z"/></svg>